<svg xmlns="http://www.w3.org/2000/svg" xmlns:xlink="http://www.w3.org/1999/xlink" width="1000" zoomAndPan="magnify" viewBox="0 0 750 749.999995" height="1000" preserveAspectRatio="xMidYMid meet" version="1.2"><defs><clipPath id="06f389f9bc"><path d="M 285.15625 313.066406 L 306.15625 313.066406 L 306.15625 334.046875 L 285.15625 334.046875 Z M 285.15625 313.066406 "/></clipPath></defs><g id="5b7d7ba456"><g clip-rule="nonzero" clip-path="url(#06f389f9bc)"><path style=" stroke:none;fill-rule:nonzero;fill:#000000;fill-opacity:1;" d="M 306.136719 323.554688 C 306.136719 329.347656 301.441406 334.046875 295.648438 334.046875 C 289.855469 334.046875 285.15625 329.347656 285.15625 323.554688 C 285.15625 317.761719 289.855469 313.066406 295.648438 313.066406 C 301.441406 313.066406 306.136719 317.761719 306.136719 323.554688 Z M 306.136719 323.554688 "/></g><path style=" stroke:none;fill-rule:nonzero;fill:#cfc6e3;fill-opacity:1;" d="M 674.863281 333.605469 C 674.707031 303.515625 670.148438 273.253906 660.226562 244.804688 C 650.589844 217.175781 636.582031 189.519531 613.855469 170.359375 C 591.648438 151.636719 563.648438 142.023438 534.617188 142.601562 C 528.1875 142.730469 521.746094 143.371094 515.320312 144.152344 C 513.71875 143.863281 512.042969 143.847656 510.363281 144.140625 C 505.691406 144.953125 500.980469 145.492188 496.257812 145.886719 C 491.382812 146.222656 486.480469 146.449219 481.574219 146.722656 C 455.992188 138.085938 428.230469 133.191406 402.242188 141.417969 C 373.949219 150.371094 353.363281 173.816406 342.386719 200.761719 C 333.753906 221.957031 332.292969 245.28125 323.847656 266.539062 C 323.085938 268.457031 322.25 270.339844 321.359375 272.195312 C 321.332031 272.191406 320.183594 274.371094 319.839844 274.957031 C 319.070312 276.269531 318.238281 277.546875 317.378906 278.804688 C 315.9375 280.917969 314.332031 282.910156 312.640625 284.824219 C 312.238281 285.222656 311.828125 285.617188 311.421875 286.007812 C 310.210938 287.160156 308.941406 288.242188 307.648438 289.296875 C 306.5 290.230469 305.308594 291.101562 304.101562 291.953125 C 303.808594 292.160156 303.511719 292.363281 303.210938 292.5625 C 302.980469 292.710938 302.753906 292.851562 302.589844 292.949219 C 299.84375 294.578125 296.945312 296 294.089844 297.425781 C 288.527344 300.203125 282.835938 302.71875 277.085938 305.082031 C 271.261719 307.472656 265.355469 309.667969 259.417969 311.765625 C 258.910156 311.945312 258.402344 312.121094 257.894531 312.296875 C 257.851562 312.3125 257.8125 312.324219 257.765625 312.34375 C 256.320312 312.832031 254.875 313.316406 253.425781 313.796875 C 250.28125 314.839844 247.125 315.855469 243.96875 316.863281 C 231.789062 320.746094 219.546875 324.425781 207.398438 328.394531 C 182.851562 336.417969 158.207031 345.628906 136.640625 360.078125 C 112.597656 376.1875 91.628906 398.773438 83.195312 426.960938 C 75.003906 454.351562 82.253906 483.054688 95.351562 507.574219 C 108.125 531.484375 127.550781 552.171875 148.609375 569.011719 C 173.128906 588.621094 201.308594 602.851562 231.941406 609.894531 C 262.136719 616.839844 294.289062 615.019531 323.953125 606.453125 C 339.71875 601.898438 354.941406 595.738281 369.457031 588.101562 C 384.164062 580.363281 397.914062 570.996094 411.34375 561.238281 C 422.652344 553.023438 433.683594 544.429688 445.015625 536.242188 C 445.101562 536.183594 445.1875 536.121094 445.273438 536.058594 C 445.609375 535.824219 446.265625 535.355469 446.605469 535.121094 C 447.933594 534.191406 449.269531 533.273438 450.609375 532.363281 C 453.488281 530.40625 456.402344 528.5 459.34375 526.640625 C 464.957031 523.097656 470.722656 519.796875 476.644531 516.796875 C 478.066406 516.074219 479.503906 515.382812 480.945312 514.703125 C 481.554688 514.414062 483.5 513.558594 484.21875 513.238281 C 486.898438 512.140625 489.609375 511.121094 492.347656 510.175781 C 498.296875 508.117188 504.394531 506.5 510.5625 505.253906 C 510.589844 505.277344 513.886719 504.703125 514.746094 504.582031 C 516.527344 504.332031 518.3125 504.132812 520.097656 503.945312 C 523.945312 503.546875 527.800781 503.371094 531.660156 503.191406 C 537.851562 502.902344 544.03125 502.339844 550.171875 501.5 C 574.3125 498.203125 597.878906 490.421875 617.746094 476.039062 C 637.605469 461.65625 652.011719 440.878906 660.871094 418.199219 C 671.261719 391.597656 675.011719 362.027344 674.863281 333.605469 Z M 674.863281 333.605469 "/></g></svg>