<svg xmlns="http://www.w3.org/2000/svg" xmlns:xlink="http://www.w3.org/1999/xlink" width="1000" zoomAndPan="magnify" viewBox="0 0 750 749.999995" height="1000" preserveAspectRatio="xMidYMid meet" version="1.2"><defs><clipPath id="5a3314111b"><path d="M 274.257812 313.25 L 476 313.25 L 476 514.796875 L 274.257812 514.796875 Z M 274.257812 313.25 "/></clipPath><clipPath id="725c74c587"><path d="M 75 75.613281 L 675 75.613281 L 675 675 L 75 675 Z M 75 75.613281 "/></clipPath></defs><g id="bfa4664e7b"><g clip-rule="nonzero" clip-path="url(#5a3314111b)"><path style=" stroke:none;fill-rule:nonzero;fill:#000000;fill-opacity:1;" d="M 475.804688 414.023438 C 475.804688 469.675781 430.683594 514.796875 375.03125 514.796875 C 319.378906 514.796875 274.257812 469.675781 274.257812 414.023438 C 274.257812 358.371094 319.378906 313.25 375.03125 313.25 C 430.683594 313.25 475.804688 358.371094 475.804688 414.023438 Z M 475.804688 414.023438 "/></g><g clip-rule="nonzero" clip-path="url(#725c74c587)"><path style=" stroke:none;fill-rule:nonzero;fill:#0b3467;fill-opacity:1;" d="M 674.386719 375.304688 C 674.386719 540.816406 540.207031 675 374.695312 675 C 209.183594 675 75 540.816406 75 375.304688 C 75 209.792969 209.183594 75.613281 374.695312 75.613281 C 540.207031 75.613281 674.386719 209.792969 674.386719 375.304688 Z M 674.386719 375.304688 "/></g></g></svg>