<svg xmlns="http://www.w3.org/2000/svg" xmlns:xlink="http://www.w3.org/1999/xlink" width="1000" zoomAndPan="magnify" viewBox="0 0 750 749.999995" height="1000" preserveAspectRatio="xMidYMid meet" version="1.2"><defs><clipPath id="cb6177f3c7"><path d="M 274.257812 313.25 L 476 313.25 L 476 514.796875 L 274.257812 514.796875 Z M 274.257812 313.25 "/></clipPath><clipPath id="0a21ebf103"><path d="M 75 112.5 L 675 112.5 L 675 637.5 L 75 637.5 Z M 75 112.5 "/></clipPath><clipPath id="fdc90947ef"><path d="M 375 112.5 L 675 637.5 L 75 637.5 Z M 375 112.5 "/></clipPath></defs><g id="055d6f075a"><g clip-rule="nonzero" clip-path="url(#cb6177f3c7)"><path style=" stroke:none;fill-rule:nonzero;fill:#000000;fill-opacity:1;" d="M 475.804688 414.023438 C 475.804688 469.675781 430.683594 514.796875 375.03125 514.796875 C 319.378906 514.796875 274.257812 469.675781 274.257812 414.023438 C 274.257812 358.371094 319.378906 313.25 375.03125 313.25 C 430.683594 313.25 475.804688 358.371094 475.804688 414.023438 Z M 475.804688 414.023438 "/></g><g clip-rule="nonzero" clip-path="url(#0a21ebf103)"><g clip-rule="nonzero" clip-path="url(#fdc90947ef)"><path style=" stroke:none;fill-rule:nonzero;fill:#e8f1fc;fill-opacity:1;" d="M 75 112.5 L 675.878906 112.5 L 675.878906 637.5 L 75 637.5 Z M 75 112.5 "/></g></g></g></svg>