<svg xmlns="http://www.w3.org/2000/svg" xmlns:xlink="http://www.w3.org/1999/xlink" width="1000" zoomAndPan="magnify" viewBox="0 0 750 749.999995" height="1000" preserveAspectRatio="xMidYMid meet" version="1.2"><defs><clipPath id="9b7e004275"><path d="M 285.15625 313.066406 L 306.15625 313.066406 L 306.15625 334.046875 L 285.15625 334.046875 Z M 285.15625 313.066406 "/></clipPath><clipPath id="f04c9a5821"><path d="M 199 597 L 224 597 L 224 712 L 199 712 Z M 199 597 "/></clipPath><clipPath id="e9f7322fbe"><path d="M 52.324219 568.597656 L 521.4375 59.539062 L 684.140625 209.472656 L 215.023438 718.53125 Z M 52.324219 568.597656 "/></clipPath><clipPath id="ccd124cdd9"><path d="M 52.324219 568.597656 L 521.4375 59.539062 L 684.140625 209.472656 L 215.023438 718.53125 Z M 52.324219 568.597656 "/></clipPath><clipPath id="f8344714ee"><path d="M 199 593 L 315 593 L 315 618 L 199 618 Z M 199 593 "/></clipPath><clipPath id="3c510eb26c"><path d="M 52.324219 568.597656 L 521.4375 59.539062 L 684.140625 209.472656 L 215.023438 718.53125 Z M 52.324219 568.597656 "/></clipPath><clipPath id="d4902eb2db"><path d="M 52.324219 568.597656 L 521.4375 59.539062 L 684.140625 209.472656 L 215.023438 718.53125 Z M 52.324219 568.597656 "/></clipPath><clipPath id="90ed169e07"><path d="M 290 499 L 315 499 L 315 614 L 290 614 Z M 290 499 "/></clipPath><clipPath id="e508990432"><path d="M 52.324219 568.597656 L 521.4375 59.539062 L 684.140625 209.472656 L 215.023438 718.53125 Z M 52.324219 568.597656 "/></clipPath><clipPath id="95d5231d83"><path d="M 52.324219 568.597656 L 521.4375 59.539062 L 684.140625 209.472656 L 215.023438 718.53125 Z M 52.324219 568.597656 "/></clipPath><clipPath id="ab6e76ba3c"><path d="M 290 495 L 405 495 L 405 520 L 290 520 Z M 290 495 "/></clipPath><clipPath id="8fba9ad3c0"><path d="M 52.324219 568.597656 L 521.4375 59.539062 L 684.140625 209.472656 L 215.023438 718.53125 Z M 52.324219 568.597656 "/></clipPath><clipPath id="de22ee9b94"><path d="M 52.324219 568.597656 L 521.4375 59.539062 L 684.140625 209.472656 L 215.023438 718.53125 Z M 52.324219 568.597656 "/></clipPath><clipPath id="a28e61cd52"><path d="M 381 401 L 405 401 L 405 516 L 381 516 Z M 381 401 "/></clipPath><clipPath id="1af5f92159"><path d="M 52.324219 568.597656 L 521.4375 59.539062 L 684.140625 209.472656 L 215.023438 718.53125 Z M 52.324219 568.597656 "/></clipPath><clipPath id="ca169d1fed"><path d="M 52.324219 568.597656 L 521.4375 59.539062 L 684.140625 209.472656 L 215.023438 718.53125 Z M 52.324219 568.597656 "/></clipPath><clipPath id="7172f26e2d"><path d="M 381 397 L 496 397 L 496 421 L 381 421 Z M 381 397 "/></clipPath><clipPath id="7ce5dd56c9"><path d="M 52.324219 568.597656 L 521.4375 59.539062 L 684.140625 209.472656 L 215.023438 718.53125 Z M 52.324219 568.597656 "/></clipPath><clipPath id="3e1d4de31d"><path d="M 52.324219 568.597656 L 521.4375 59.539062 L 684.140625 209.472656 L 215.023438 718.53125 Z M 52.324219 568.597656 "/></clipPath><clipPath id="2fd4961c50"><path d="M 472 302 L 496 302 L 496 417 L 472 417 Z M 472 302 "/></clipPath><clipPath id="846d97289a"><path d="M 52.324219 568.597656 L 521.4375 59.539062 L 684.140625 209.472656 L 215.023438 718.53125 Z M 52.324219 568.597656 "/></clipPath><clipPath id="05510f0552"><path d="M 52.324219 568.597656 L 521.4375 59.539062 L 684.140625 209.472656 L 215.023438 718.53125 Z M 52.324219 568.597656 "/></clipPath><clipPath id="3f41835dbc"><path d="M 472 298 L 587 298 L 587 323 L 472 323 Z M 472 298 "/></clipPath><clipPath id="316aaac3ee"><path d="M 52.324219 568.597656 L 521.4375 59.539062 L 684.140625 209.472656 L 215.023438 718.53125 Z M 52.324219 568.597656 "/></clipPath><clipPath id="e806983a8e"><path d="M 52.324219 568.597656 L 521.4375 59.539062 L 684.140625 209.472656 L 215.023438 718.53125 Z M 52.324219 568.597656 "/></clipPath><clipPath id="8845abba22"><path d="M 563 204 L 587 204 L 587 319 L 563 319 Z M 563 204 "/></clipPath><clipPath id="987316a6a2"><path d="M 52.324219 568.597656 L 521.4375 59.539062 L 684.140625 209.472656 L 215.023438 718.53125 Z M 52.324219 568.597656 "/></clipPath><clipPath id="e0c212e102"><path d="M 52.324219 568.597656 L 521.4375 59.539062 L 684.140625 209.472656 L 215.023438 718.53125 Z M 52.324219 568.597656 "/></clipPath><clipPath id="3f7ddaaf1b"><path d="M 563 200 L 678 200 L 678 224 L 563 224 Z M 563 200 "/></clipPath><clipPath id="32e14294f8"><path d="M 52.324219 568.597656 L 521.4375 59.539062 L 684.140625 209.472656 L 215.023438 718.53125 Z M 52.324219 568.597656 "/></clipPath><clipPath id="220c41d2cb"><path d="M 52.324219 568.597656 L 521.4375 59.539062 L 684.140625 209.472656 L 215.023438 718.53125 Z M 52.324219 568.597656 "/></clipPath><clipPath id="5b010bddef"><path d="M 151 554 L 176 554 L 176 669 L 151 669 Z M 151 554 "/></clipPath><clipPath id="2214898e19"><path d="M 52.324219 568.597656 L 521.4375 59.539062 L 684.140625 209.472656 L 215.023438 718.53125 Z M 52.324219 568.597656 "/></clipPath><clipPath id="0910c590de"><path d="M 52.324219 568.597656 L 521.4375 59.539062 L 684.140625 209.472656 L 215.023438 718.53125 Z M 52.324219 568.597656 "/></clipPath><clipPath id="26ceafa670"><path d="M 152 550 L 267 550 L 267 575 L 152 575 Z M 152 550 "/></clipPath><clipPath id="c121fb0b79"><path d="M 52.324219 568.597656 L 521.4375 59.539062 L 684.140625 209.472656 L 215.023438 718.53125 Z M 52.324219 568.597656 "/></clipPath><clipPath id="61ab6d863f"><path d="M 52.324219 568.597656 L 521.4375 59.539062 L 684.140625 209.472656 L 215.023438 718.53125 Z M 52.324219 568.597656 "/></clipPath><clipPath id="3265ee1b88"><path d="M 242 456 L 267 456 L 267 571 L 242 571 Z M 242 456 "/></clipPath><clipPath id="67cc07fcee"><path d="M 52.324219 568.597656 L 521.4375 59.539062 L 684.140625 209.472656 L 215.023438 718.53125 Z M 52.324219 568.597656 "/></clipPath><clipPath id="ff28396f0a"><path d="M 52.324219 568.597656 L 521.4375 59.539062 L 684.140625 209.472656 L 215.023438 718.53125 Z M 52.324219 568.597656 "/></clipPath><clipPath id="cc06258237"><path d="M 243 452 L 358 452 L 358 476 L 243 476 Z M 243 452 "/></clipPath><clipPath id="29d1d02afb"><path d="M 52.324219 568.597656 L 521.4375 59.539062 L 684.140625 209.472656 L 215.023438 718.53125 Z M 52.324219 568.597656 "/></clipPath><clipPath id="14b914b16a"><path d="M 52.324219 568.597656 L 521.4375 59.539062 L 684.140625 209.472656 L 215.023438 718.53125 Z M 52.324219 568.597656 "/></clipPath><clipPath id="8b7525becb"><path d="M 333 357 L 358 357 L 358 472 L 333 472 Z M 333 357 "/></clipPath><clipPath id="5ba9daf90f"><path d="M 52.324219 568.597656 L 521.4375 59.539062 L 684.140625 209.472656 L 215.023438 718.53125 Z M 52.324219 568.597656 "/></clipPath><clipPath id="490babcaeb"><path d="M 52.324219 568.597656 L 521.4375 59.539062 L 684.140625 209.472656 L 215.023438 718.53125 Z M 52.324219 568.597656 "/></clipPath><clipPath id="336931f28c"><path d="M 334 353 L 449 353 L 449 378 L 334 378 Z M 334 353 "/></clipPath><clipPath id="aace5fda1a"><path d="M 52.324219 568.597656 L 521.4375 59.539062 L 684.140625 209.472656 L 215.023438 718.53125 Z M 52.324219 568.597656 "/></clipPath><clipPath id="ae0fd2b5a3"><path d="M 52.324219 568.597656 L 521.4375 59.539062 L 684.140625 209.472656 L 215.023438 718.53125 Z M 52.324219 568.597656 "/></clipPath><clipPath id="339bd88266"><path d="M 424 259 L 448 259 L 448 374 L 424 374 Z M 424 259 "/></clipPath><clipPath id="f491b7d803"><path d="M 52.324219 568.597656 L 521.4375 59.539062 L 684.140625 209.472656 L 215.023438 718.53125 Z M 52.324219 568.597656 "/></clipPath><clipPath id="d93270ece4"><path d="M 52.324219 568.597656 L 521.4375 59.539062 L 684.140625 209.472656 L 215.023438 718.53125 Z M 52.324219 568.597656 "/></clipPath><clipPath id="ce6cfa0225"><path d="M 424 255 L 539 255 L 539 280 L 424 280 Z M 424 255 "/></clipPath><clipPath id="570fe34a43"><path d="M 52.324219 568.597656 L 521.4375 59.539062 L 684.140625 209.472656 L 215.023438 718.53125 Z M 52.324219 568.597656 "/></clipPath><clipPath id="ba6d1aca99"><path d="M 52.324219 568.597656 L 521.4375 59.539062 L 684.140625 209.472656 L 215.023438 718.53125 Z M 52.324219 568.597656 "/></clipPath><clipPath id="79bb07766b"><path d="M 515 160 L 540 160 L 540 275 L 515 275 Z M 515 160 "/></clipPath><clipPath id="3a8c1e824e"><path d="M 52.324219 568.597656 L 521.4375 59.539062 L 684.140625 209.472656 L 215.023438 718.53125 Z M 52.324219 568.597656 "/></clipPath><clipPath id="ec54dceda8"><path d="M 52.324219 568.597656 L 521.4375 59.539062 L 684.140625 209.472656 L 215.023438 718.53125 Z M 52.324219 568.597656 "/></clipPath><clipPath id="ad989ba065"><path d="M 515 156 L 630 156 L 630 181 L 515 181 Z M 515 156 "/></clipPath><clipPath id="eef16b6c32"><path d="M 52.324219 568.597656 L 521.4375 59.539062 L 684.140625 209.472656 L 215.023438 718.53125 Z M 52.324219 568.597656 "/></clipPath><clipPath id="6649b58808"><path d="M 52.324219 568.597656 L 521.4375 59.539062 L 684.140625 209.472656 L 215.023438 718.53125 Z M 52.324219 568.597656 "/></clipPath><clipPath id="53e84a9363"><path d="M 103 509 L 128 509 L 128 624 L 103 624 Z M 103 509 "/></clipPath><clipPath id="c00545d658"><path d="M 52.324219 568.597656 L 521.4375 59.539062 L 684.140625 209.472656 L 215.023438 718.53125 Z M 52.324219 568.597656 "/></clipPath><clipPath id="64c5fc16e6"><path d="M 52.324219 568.597656 L 521.4375 59.539062 L 684.140625 209.472656 L 215.023438 718.53125 Z M 52.324219 568.597656 "/></clipPath><clipPath id="f668703b0b"><path d="M 104 505 L 219 505 L 219 530 L 104 530 Z M 104 505 "/></clipPath><clipPath id="930eb64f8f"><path d="M 52.324219 568.597656 L 521.4375 59.539062 L 684.140625 209.472656 L 215.023438 718.53125 Z M 52.324219 568.597656 "/></clipPath><clipPath id="f6390cb645"><path d="M 52.324219 568.597656 L 521.4375 59.539062 L 684.140625 209.472656 L 215.023438 718.53125 Z M 52.324219 568.597656 "/></clipPath><clipPath id="d8c0ac931d"><path d="M 194 411 L 219 411 L 219 526 L 194 526 Z M 194 411 "/></clipPath><clipPath id="eb56b6a9aa"><path d="M 52.324219 568.597656 L 521.4375 59.539062 L 684.140625 209.472656 L 215.023438 718.53125 Z M 52.324219 568.597656 "/></clipPath><clipPath id="936ca44e34"><path d="M 52.324219 568.597656 L 521.4375 59.539062 L 684.140625 209.472656 L 215.023438 718.53125 Z M 52.324219 568.597656 "/></clipPath><clipPath id="789e903409"><path d="M 195 407 L 310 407 L 310 431 L 195 431 Z M 195 407 "/></clipPath><clipPath id="4f031ed05e"><path d="M 52.324219 568.597656 L 521.4375 59.539062 L 684.140625 209.472656 L 215.023438 718.53125 Z M 52.324219 568.597656 "/></clipPath><clipPath id="363b045c9e"><path d="M 52.324219 568.597656 L 521.4375 59.539062 L 684.140625 209.472656 L 215.023438 718.53125 Z M 52.324219 568.597656 "/></clipPath><clipPath id="4cf54a5c5b"><path d="M 285 312 L 310 312 L 310 427 L 285 427 Z M 285 312 "/></clipPath><clipPath id="db29d1c7b2"><path d="M 52.324219 568.597656 L 521.4375 59.539062 L 684.140625 209.472656 L 215.023438 718.53125 Z M 52.324219 568.597656 "/></clipPath><clipPath id="89e4de3d20"><path d="M 52.324219 568.597656 L 521.4375 59.539062 L 684.140625 209.472656 L 215.023438 718.53125 Z M 52.324219 568.597656 "/></clipPath><clipPath id="e516be5dd6"><path d="M 286 308 L 401 308 L 401 333 L 286 333 Z M 286 308 "/></clipPath><clipPath id="ac3b3ef6e6"><path d="M 52.324219 568.597656 L 521.4375 59.539062 L 684.140625 209.472656 L 215.023438 718.53125 Z M 52.324219 568.597656 "/></clipPath><clipPath id="ecc92de2b6"><path d="M 52.324219 568.597656 L 521.4375 59.539062 L 684.140625 209.472656 L 215.023438 718.53125 Z M 52.324219 568.597656 "/></clipPath><clipPath id="01a200c6b4"><path d="M 376 214 L 400 214 L 400 329 L 376 329 Z M 376 214 "/></clipPath><clipPath id="5f557e8046"><path d="M 52.324219 568.597656 L 521.4375 59.539062 L 684.140625 209.472656 L 215.023438 718.53125 Z M 52.324219 568.597656 "/></clipPath><clipPath id="0807745145"><path d="M 52.324219 568.597656 L 521.4375 59.539062 L 684.140625 209.472656 L 215.023438 718.53125 Z M 52.324219 568.597656 "/></clipPath><clipPath id="d070d85fa3"><path d="M 376 210 L 491 210 L 491 235 L 376 235 Z M 376 210 "/></clipPath><clipPath id="769672f346"><path d="M 52.324219 568.597656 L 521.4375 59.539062 L 684.140625 209.472656 L 215.023438 718.53125 Z M 52.324219 568.597656 "/></clipPath><clipPath id="436c646c43"><path d="M 52.324219 568.597656 L 521.4375 59.539062 L 684.140625 209.472656 L 215.023438 718.53125 Z M 52.324219 568.597656 "/></clipPath><clipPath id="9cbf96dad4"><path d="M 467 115 L 492 115 L 492 230 L 467 230 Z M 467 115 "/></clipPath><clipPath id="77268ddc8f"><path d="M 52.324219 568.597656 L 521.4375 59.539062 L 684.140625 209.472656 L 215.023438 718.53125 Z M 52.324219 568.597656 "/></clipPath><clipPath id="47c46523a1"><path d="M 52.324219 568.597656 L 521.4375 59.539062 L 684.140625 209.472656 L 215.023438 718.53125 Z M 52.324219 568.597656 "/></clipPath><clipPath id="27d15f30c3"><path d="M 468 111 L 583 111 L 583 136 L 468 136 Z M 468 111 "/></clipPath><clipPath id="04861c54ca"><path d="M 52.324219 568.597656 L 521.4375 59.539062 L 684.140625 209.472656 L 215.023438 718.53125 Z M 52.324219 568.597656 "/></clipPath><clipPath id="66ae26fd44"><path d="M 52.324219 568.597656 L 521.4375 59.539062 L 684.140625 209.472656 L 215.023438 718.53125 Z M 52.324219 568.597656 "/></clipPath></defs><g id="b2a82e39c5"><g clip-rule="nonzero" clip-path="url(#9b7e004275)"><path style=" stroke:none;fill-rule:nonzero;fill:#000000;fill-opacity:1;" d="M 306.136719 323.554688 C 306.136719 329.347656 301.441406 334.046875 295.648438 334.046875 C 289.855469 334.046875 285.15625 329.347656 285.15625 323.554688 C 285.15625 317.761719 289.855469 313.066406 295.648438 313.066406 C 301.441406 313.066406 306.136719 317.761719 306.136719 323.554688 Z M 306.136719 323.554688 "/></g><g clip-rule="nonzero" clip-path="url(#f04c9a5821)"><g clip-rule="nonzero" clip-path="url(#e9f7322fbe)"><g clip-rule="nonzero" clip-path="url(#ccd124cdd9)"><path style=" stroke:none;fill-rule:nonzero;fill:#004aad;fill-opacity:1;" d="M 203.402344 702.394531 L 199.605469 608.089844 C 199.386719 602.640625 203.625 598.042969 209.074219 597.816406 C 214.519531 597.589844 219.113281 601.824219 219.332031 607.269531 L 223.125 701.578125 C 223.347656 707.023438 219.109375 711.625 213.660156 711.847656 C 208.214844 712.074219 203.621094 707.84375 203.402344 702.394531 Z M 203.402344 702.394531 "/></g></g></g><g clip-rule="nonzero" clip-path="url(#f8344714ee)"><g clip-rule="nonzero" clip-path="url(#3c510eb26c)"><g clip-rule="nonzero" clip-path="url(#d4902eb2db)"><path style=" stroke:none;fill-rule:nonzero;fill:#004aad;fill-opacity:1;" d="M 303.757812 593.90625 L 209.453125 597.8125 C 204.007812 598.039062 199.769531 602.636719 199.988281 608.085938 C 200.207031 613.53125 204.800781 617.765625 210.246094 617.539062 L 304.550781 613.632812 C 309.996094 613.40625 314.234375 608.808594 314.015625 603.359375 C 313.796875 597.914062 309.203125 593.679688 303.757812 593.90625 Z M 303.757812 593.90625 "/></g></g></g><g clip-rule="nonzero" clip-path="url(#90ed169e07)"><g clip-rule="nonzero" clip-path="url(#e508990432)"><g clip-rule="nonzero" clip-path="url(#95d5231d83)"><path style=" stroke:none;fill-rule:nonzero;fill:#004aad;fill-opacity:1;" d="M 294.285156 604.074219 L 290.492188 509.769531 C 290.273438 504.320312 294.507812 499.722656 299.957031 499.496094 C 305.402344 499.269531 309.996094 503.503906 310.214844 508.949219 L 314.011719 603.257812 C 314.230469 608.707031 309.992188 613.304688 304.546875 613.53125 C 299.097656 613.753906 294.503906 609.523438 294.285156 604.074219 Z M 294.285156 604.074219 "/></g></g></g><g clip-rule="nonzero" clip-path="url(#ab6e76ba3c)"><g clip-rule="nonzero" clip-path="url(#8fba9ad3c0)"><g clip-rule="nonzero" clip-path="url(#de22ee9b94)"><path style=" stroke:none;fill-rule:nonzero;fill:#004aad;fill-opacity:1;" d="M 394.640625 495.585938 L 300.335938 499.492188 C 294.890625 499.71875 290.652344 504.316406 290.871094 509.765625 C 291.089844 515.210938 295.683594 519.445312 301.132812 519.21875 L 395.433594 515.3125 C 400.882812 515.085938 405.117188 510.488281 404.898438 505.039062 C 404.679688 499.59375 400.085938 495.359375 394.640625 495.585938 Z M 394.640625 495.585938 "/></g></g></g><g clip-rule="nonzero" clip-path="url(#a28e61cd52)"><g clip-rule="nonzero" clip-path="url(#1af5f92159)"><g clip-rule="nonzero" clip-path="url(#ca169d1fed)"><path style=" stroke:none;fill-rule:nonzero;fill:#004aad;fill-opacity:1;" d="M 385.207031 505.738281 L 381.414062 411.429688 C 381.195312 405.984375 385.429688 401.382812 390.878906 401.160156 C 396.324219 400.933594 400.917969 405.164062 401.136719 410.613281 L 404.933594 504.921875 C 405.152344 510.367188 400.914062 514.964844 395.46875 515.191406 C 390.019531 515.417969 385.425781 511.183594 385.207031 505.738281 Z M 385.207031 505.738281 "/></g></g></g><g clip-rule="nonzero" clip-path="url(#7172f26e2d)"><g clip-rule="nonzero" clip-path="url(#7ce5dd56c9)"><g clip-rule="nonzero" clip-path="url(#3e1d4de31d)"><path style=" stroke:none;fill-rule:nonzero;fill:#004aad;fill-opacity:1;" d="M 485.5625 397.25 L 391.257812 401.15625 C 385.8125 401.382812 381.574219 405.980469 381.792969 411.425781 C 382.011719 416.875 386.605469 421.105469 392.054688 420.882812 L 486.355469 416.976562 C 491.804688 416.75 496.039062 412.148438 495.820312 406.703125 C 495.601562 401.253906 491.007812 397.023438 485.5625 397.25 Z M 485.5625 397.25 "/></g></g></g><g clip-rule="nonzero" clip-path="url(#2fd4961c50)"><g clip-rule="nonzero" clip-path="url(#846d97289a)"><g clip-rule="nonzero" clip-path="url(#05510f0552)"><path style=" stroke:none;fill-rule:nonzero;fill:#004aad;fill-opacity:1;" d="M 475.863281 407.351562 L 472.070312 313.042969 C 471.851562 307.597656 476.089844 303 481.535156 302.773438 C 486.984375 302.546875 491.574219 306.78125 491.796875 312.226562 L 495.589844 406.535156 C 495.808594 411.980469 491.570312 416.582031 486.125 416.804688 C 480.675781 417.03125 476.082031 412.796875 475.863281 407.351562 Z M 475.863281 407.351562 "/></g></g></g><g clip-rule="nonzero" clip-path="url(#3f41835dbc)"><g clip-rule="nonzero" clip-path="url(#316aaac3ee)"><g clip-rule="nonzero" clip-path="url(#e806983a8e)"><path style=" stroke:none;fill-rule:nonzero;fill:#004aad;fill-opacity:1;" d="M 576.21875 298.863281 L 481.917969 302.769531 C 476.46875 302.996094 472.230469 307.59375 472.449219 313.039062 C 472.667969 318.488281 477.261719 322.722656 482.710938 322.496094 L 577.011719 318.589844 C 582.460938 318.363281 586.699219 313.765625 586.480469 308.316406 C 586.257812 302.871094 581.667969 298.636719 576.21875 298.863281 Z M 576.21875 298.863281 "/></g></g></g><g clip-rule="nonzero" clip-path="url(#8845abba22)"><g clip-rule="nonzero" clip-path="url(#987316a6a2)"><g clip-rule="nonzero" clip-path="url(#e0c212e102)"><path style=" stroke:none;fill-rule:nonzero;fill:#004aad;fill-opacity:1;" d="M 567.078125 308.636719 L 563.28125 214.332031 C 563.0625 208.882812 567.300781 204.285156 572.75 204.058594 C 578.195312 203.832031 582.789062 208.066406 583.007812 213.511719 L 586.804688 307.820312 C 587.023438 313.269531 582.785156 317.867188 577.335938 318.09375 C 571.890625 318.316406 567.296875 314.085938 567.078125 308.636719 Z M 567.078125 308.636719 "/></g></g></g><g clip-rule="nonzero" clip-path="url(#3f7ddaaf1b)"><g clip-rule="nonzero" clip-path="url(#32e14294f8)"><g clip-rule="nonzero" clip-path="url(#220c41d2cb)"><path style=" stroke:none;fill-rule:nonzero;fill:#004aad;fill-opacity:1;" d="M 667.433594 200.148438 L 573.128906 204.054688 C 567.683594 204.28125 563.445312 208.878906 563.664062 214.328125 C 563.882812 219.773438 568.476562 224.007812 573.921875 223.78125 L 668.226562 219.875 C 673.671875 219.648438 677.910156 215.050781 677.691406 209.601562 C 677.472656 204.15625 672.878906 199.921875 667.433594 200.148438 Z M 667.433594 200.148438 "/></g></g></g><g clip-rule="nonzero" clip-path="url(#5b010bddef)"><g clip-rule="nonzero" clip-path="url(#2214898e19)"><g clip-rule="nonzero" clip-path="url(#0910c590de)"><path style=" stroke:none;fill-rule:nonzero;fill:#004aad;fill-opacity:1;" d="M 155.65625 658.90625 L 151.859375 564.597656 C 151.640625 559.152344 155.878906 554.554688 161.328125 554.328125 C 166.773438 554.101562 171.367188 558.335938 171.585938 563.78125 L 175.382812 658.089844 C 175.601562 663.535156 171.363281 668.136719 165.914062 668.359375 C 160.46875 668.585938 155.875 664.355469 155.65625 658.90625 Z M 155.65625 658.90625 "/></g></g></g><g clip-rule="nonzero" clip-path="url(#26ceafa670)"><g clip-rule="nonzero" clip-path="url(#c121fb0b79)"><g clip-rule="nonzero" clip-path="url(#61ab6d863f)"><path style=" stroke:none;fill-rule:nonzero;fill:#004aad;fill-opacity:1;" d="M 256.011719 550.417969 L 161.707031 554.324219 C 156.261719 554.550781 152.023438 559.148438 152.242188 564.597656 C 152.460938 570.042969 157.054688 574.277344 162.5 574.050781 L 256.804688 570.144531 C 262.25 569.917969 266.488281 565.320312 266.269531 559.871094 C 266.050781 554.425781 261.457031 550.191406 256.011719 550.417969 Z M 256.011719 550.417969 "/></g></g></g><g clip-rule="nonzero" clip-path="url(#3265ee1b88)"><g clip-rule="nonzero" clip-path="url(#67cc07fcee)"><g clip-rule="nonzero" clip-path="url(#ff28396f0a)"><path style=" stroke:none;fill-rule:nonzero;fill:#004aad;fill-opacity:1;" d="M 246.539062 560.585938 L 242.746094 466.28125 C 242.527344 460.832031 246.765625 456.234375 252.210938 456.007812 C 257.65625 455.78125 262.25 460.015625 262.46875 465.460938 L 266.265625 559.769531 C 266.484375 565.21875 262.246094 569.816406 256.800781 570.042969 C 251.351562 570.265625 246.757812 566.035156 246.539062 560.585938 Z M 246.539062 560.585938 "/></g></g></g><g clip-rule="nonzero" clip-path="url(#cc06258237)"><g clip-rule="nonzero" clip-path="url(#29d1d02afb)"><g clip-rule="nonzero" clip-path="url(#14b914b16a)"><path style=" stroke:none;fill-rule:nonzero;fill:#004aad;fill-opacity:1;" d="M 346.894531 452.097656 L 252.59375 456.003906 C 247.144531 456.230469 242.90625 460.828125 243.125 466.277344 C 243.34375 471.722656 247.9375 475.957031 253.386719 475.730469 L 347.6875 471.824219 C 353.136719 471.597656 357.375 467 357.15625 461.550781 C 356.933594 456.105469 352.34375 451.871094 346.894531 452.097656 Z M 346.894531 452.097656 "/></g></g></g><g clip-rule="nonzero" clip-path="url(#8b7525becb)"><g clip-rule="nonzero" clip-path="url(#5ba9daf90f)"><g clip-rule="nonzero" clip-path="url(#490babcaeb)"><path style=" stroke:none;fill-rule:nonzero;fill:#004aad;fill-opacity:1;" d="M 337.460938 462.25 L 333.667969 367.941406 C 333.449219 362.496094 337.6875 357.894531 343.132812 357.671875 C 348.578125 357.445312 353.171875 361.675781 353.390625 367.125 L 357.1875 461.433594 C 357.40625 466.878906 353.167969 471.476562 347.722656 471.703125 C 342.273438 471.929688 337.679688 467.695312 337.460938 462.25 Z M 337.460938 462.25 "/></g></g></g><g clip-rule="nonzero" clip-path="url(#336931f28c)"><g clip-rule="nonzero" clip-path="url(#aace5fda1a)"><g clip-rule="nonzero" clip-path="url(#ae0fd2b5a3)"><path style=" stroke:none;fill-rule:nonzero;fill:#004aad;fill-opacity:1;" d="M 437.816406 353.761719 L 343.515625 357.667969 C 338.066406 357.890625 333.828125 362.492188 334.046875 367.9375 C 334.265625 373.386719 338.859375 377.617188 344.308594 377.394531 L 438.609375 373.488281 C 444.058594 373.261719 448.296875 368.660156 448.078125 363.214844 C 447.855469 357.765625 443.265625 353.535156 437.816406 353.761719 Z M 437.816406 353.761719 "/></g></g></g><g clip-rule="nonzero" clip-path="url(#339bd88266)"><g clip-rule="nonzero" clip-path="url(#f491b7d803)"><g clip-rule="nonzero" clip-path="url(#d93270ece4)"><path style=" stroke:none;fill-rule:nonzero;fill:#004aad;fill-opacity:1;" d="M 428.121094 363.863281 L 424.324219 269.554688 C 424.105469 264.109375 428.34375 259.511719 433.789062 259.285156 C 439.238281 259.058594 443.832031 263.292969 444.050781 268.738281 L 447.84375 363.046875 C 448.0625 368.492188 443.824219 373.089844 438.378906 373.316406 C 432.933594 373.542969 428.339844 369.308594 428.121094 363.863281 Z M 428.121094 363.863281 "/></g></g></g><g clip-rule="nonzero" clip-path="url(#ce6cfa0225)"><g clip-rule="nonzero" clip-path="url(#570fe34a43)"><g clip-rule="nonzero" clip-path="url(#ba6d1aca99)"><path style=" stroke:none;fill-rule:nonzero;fill:#004aad;fill-opacity:1;" d="M 528.472656 255.375 L 434.171875 259.28125 C 428.722656 259.507812 424.484375 264.105469 424.707031 269.550781 C 424.925781 275 429.519531 279.234375 434.964844 279.007812 L 529.265625 275.101562 C 534.714844 274.875 538.953125 270.277344 538.734375 264.828125 C 538.515625 259.382812 533.921875 255.148438 528.472656 255.375 Z M 528.472656 255.375 "/></g></g></g><g clip-rule="nonzero" clip-path="url(#79bb07766b)"><g clip-rule="nonzero" clip-path="url(#3a8c1e824e)"><g clip-rule="nonzero" clip-path="url(#ec54dceda8)"><path style=" stroke:none;fill-rule:nonzero;fill:#004aad;fill-opacity:1;" d="M 519.332031 265.148438 L 515.539062 170.84375 C 515.316406 165.394531 519.554688 160.796875 525.003906 160.570312 C 530.449219 160.34375 535.042969 164.578125 535.261719 170.023438 L 539.058594 264.332031 C 539.277344 269.777344 535.039062 274.378906 529.589844 274.605469 C 524.144531 274.828125 519.550781 270.597656 519.332031 265.148438 Z M 519.332031 265.148438 "/></g></g></g><g clip-rule="nonzero" clip-path="url(#ad989ba065)"><g clip-rule="nonzero" clip-path="url(#eef16b6c32)"><g clip-rule="nonzero" clip-path="url(#6649b58808)"><path style=" stroke:none;fill-rule:nonzero;fill:#004aad;fill-opacity:1;" d="M 619.6875 156.660156 L 525.382812 160.566406 C 519.9375 160.792969 515.699219 165.390625 515.917969 170.839844 C 516.136719 176.285156 520.730469 180.519531 526.179688 180.292969 L 620.480469 176.386719 C 625.925781 176.160156 630.164062 171.5625 629.945312 166.113281 C 629.726562 160.667969 625.132812 156.433594 619.6875 156.660156 Z M 619.6875 156.660156 "/></g></g></g><g clip-rule="nonzero" clip-path="url(#53e84a9363)"><g clip-rule="nonzero" clip-path="url(#c00545d658)"><g clip-rule="nonzero" clip-path="url(#64c5fc16e6)"><path style=" stroke:none;fill-rule:nonzero;fill:#004aad;fill-opacity:1;" d="M 107.785156 613.910156 L 103.988281 519.605469 C 103.769531 514.15625 108.007812 509.558594 113.457031 509.332031 C 118.902344 509.105469 123.496094 513.339844 123.714844 518.789062 L 127.511719 613.09375 C 127.730469 618.542969 123.492188 623.140625 118.042969 623.367188 C 112.597656 623.59375 108.003906 619.359375 107.785156 613.910156 Z M 107.785156 613.910156 "/></g></g></g><g clip-rule="nonzero" clip-path="url(#f668703b0b)"><g clip-rule="nonzero" clip-path="url(#930eb64f8f)"><g clip-rule="nonzero" clip-path="url(#f6390cb645)"><path style=" stroke:none;fill-rule:nonzero;fill:#004aad;fill-opacity:1;" d="M 208.140625 505.421875 L 113.835938 509.328125 C 108.390625 509.554688 104.152344 514.152344 104.371094 519.601562 C 104.589844 525.046875 109.183594 529.28125 114.628906 529.054688 L 208.933594 525.148438 C 214.378906 524.921875 218.617188 520.324219 218.398438 514.878906 C 218.179688 509.429688 213.585938 505.195312 208.140625 505.421875 Z M 208.140625 505.421875 "/></g></g></g><g clip-rule="nonzero" clip-path="url(#d8c0ac931d)"><g clip-rule="nonzero" clip-path="url(#eb56b6a9aa)"><g clip-rule="nonzero" clip-path="url(#936ca44e34)"><path style=" stroke:none;fill-rule:nonzero;fill:#004aad;fill-opacity:1;" d="M 198.667969 515.59375 L 194.875 421.285156 C 194.65625 415.839844 198.894531 411.238281 204.339844 411.011719 C 209.785156 410.789062 214.378906 415.019531 214.597656 420.46875 L 218.394531 514.773438 C 218.613281 520.222656 214.375 524.820312 208.929688 525.046875 C 203.480469 525.273438 198.886719 521.039062 198.667969 515.59375 Z M 198.667969 515.59375 "/></g></g></g><g clip-rule="nonzero" clip-path="url(#789e903409)"><g clip-rule="nonzero" clip-path="url(#4f031ed05e)"><g clip-rule="nonzero" clip-path="url(#363b045c9e)"><path style=" stroke:none;fill-rule:nonzero;fill:#004aad;fill-opacity:1;" d="M 299.023438 407.101562 L 204.722656 411.011719 C 199.273438 411.234375 195.035156 415.835938 195.253906 421.28125 C 195.472656 426.730469 200.066406 430.960938 205.515625 430.738281 L 299.816406 426.828125 C 305.265625 426.605469 309.5 422.003906 309.28125 416.558594 C 309.0625 411.109375 304.46875 406.878906 299.023438 407.101562 Z M 299.023438 407.101562 "/></g></g></g><g clip-rule="nonzero" clip-path="url(#4cf54a5c5b)"><g clip-rule="nonzero" clip-path="url(#db29d1c7b2)"><g clip-rule="nonzero" clip-path="url(#89e4de3d20)"><path style=" stroke:none;fill-rule:nonzero;fill:#004aad;fill-opacity:1;" d="M 289.589844 417.253906 L 285.796875 322.949219 C 285.578125 317.5 289.8125 312.902344 295.261719 312.675781 C 300.707031 312.449219 305.300781 316.683594 305.519531 322.128906 L 309.316406 416.4375 C 309.535156 421.882812 305.296875 426.484375 299.851562 426.710938 C 294.402344 426.933594 289.808594 422.703125 289.589844 417.253906 Z M 289.589844 417.253906 "/></g></g></g><g clip-rule="nonzero" clip-path="url(#e516be5dd6)"><g clip-rule="nonzero" clip-path="url(#ac3b3ef6e6)"><g clip-rule="nonzero" clip-path="url(#ecc92de2b6)"><path style=" stroke:none;fill-rule:nonzero;fill:#004aad;fill-opacity:1;" d="M 389.945312 308.765625 L 295.640625 312.671875 C 290.195312 312.898438 285.957031 317.496094 286.175781 322.945312 C 286.394531 328.390625 290.988281 332.625 296.4375 332.398438 L 390.738281 328.492188 C 396.1875 328.265625 400.421875 323.667969 400.203125 318.21875 C 399.984375 312.773438 395.390625 308.539062 389.945312 308.765625 Z M 389.945312 308.765625 "/></g></g></g><g clip-rule="nonzero" clip-path="url(#01a200c6b4)"><g clip-rule="nonzero" clip-path="url(#5f557e8046)"><g clip-rule="nonzero" clip-path="url(#0807745145)"><path style=" stroke:none;fill-rule:nonzero;fill:#004aad;fill-opacity:1;" d="M 380.246094 318.867188 L 376.453125 224.5625 C 376.234375 219.113281 380.472656 214.515625 385.917969 214.289062 C 391.367188 214.0625 395.957031 218.296875 396.179688 223.742188 L 399.972656 318.050781 C 400.191406 323.5 395.953125 328.097656 390.507812 328.324219 C 385.058594 328.550781 380.464844 324.316406 380.246094 318.867188 Z M 380.246094 318.867188 "/></g></g></g><g clip-rule="nonzero" clip-path="url(#d070d85fa3)"><g clip-rule="nonzero" clip-path="url(#769672f346)"><g clip-rule="nonzero" clip-path="url(#436c646c43)"><path style=" stroke:none;fill-rule:nonzero;fill:#004aad;fill-opacity:1;" d="M 480.601562 210.378906 L 386.300781 214.285156 C 380.851562 214.511719 376.613281 219.109375 376.832031 224.558594 C 377.050781 230.003906 381.644531 234.238281 387.09375 234.011719 L 481.394531 230.105469 C 486.84375 229.878906 491.082031 225.28125 490.863281 219.832031 C 490.640625 214.386719 486.050781 210.152344 480.601562 210.378906 Z M 480.601562 210.378906 "/></g></g></g><g clip-rule="nonzero" clip-path="url(#9cbf96dad4)"><g clip-rule="nonzero" clip-path="url(#77268ddc8f)"><g clip-rule="nonzero" clip-path="url(#47c46523a1)"><path style=" stroke:none;fill-rule:nonzero;fill:#004aad;fill-opacity:1;" d="M 471.460938 220.15625 L 467.664062 125.847656 C 467.445312 120.402344 471.683594 115.800781 477.132812 115.574219 C 482.578125 115.351562 487.171875 119.582031 487.390625 125.03125 L 491.1875 219.335938 C 491.40625 224.785156 487.167969 229.382812 481.71875 229.609375 C 476.273438 229.835938 471.679688 225.601562 471.460938 220.15625 Z M 471.460938 220.15625 "/></g></g></g><g clip-rule="nonzero" clip-path="url(#27d15f30c3)"><g clip-rule="nonzero" clip-path="url(#04861c54ca)"><g clip-rule="nonzero" clip-path="url(#66ae26fd44)"><path style=" stroke:none;fill-rule:nonzero;fill:#004aad;fill-opacity:1;" d="M 571.816406 111.664062 L 477.511719 115.574219 C 472.066406 115.796875 467.828125 120.398438 468.046875 125.84375 C 468.265625 131.292969 472.859375 135.523438 478.304688 135.296875 L 572.609375 131.390625 C 578.054688 131.167969 582.292969 126.566406 582.074219 121.121094 C 581.855469 115.671875 577.261719 111.441406 571.816406 111.664062 Z M 571.816406 111.664062 "/></g></g></g></g></svg>