<svg xmlns="http://www.w3.org/2000/svg" xmlns:xlink="http://www.w3.org/1999/xlink" width="1000" zoomAndPan="magnify" viewBox="0 0 750 749.999995" height="1000" preserveAspectRatio="xMidYMid meet" version="1.2"><defs><clipPath id="2f58973af7"><path d="M 75 75 L 692.25 75 L 692.25 692.25 L 75 692.25 Z M 75 75 "/></clipPath><clipPath id="6f61a278bf"><path d="M 692.25 383.625 C 692.25 388.675781 692.125 393.722656 691.878906 398.769531 C 691.628906 403.8125 691.257812 408.847656 690.765625 413.875 C 690.269531 418.902344 689.652344 423.914062 688.910156 428.910156 C 688.167969 433.90625 687.304688 438.882812 686.320312 443.835938 C 685.335938 448.789062 684.226562 453.714844 683 458.613281 C 681.773438 463.515625 680.425781 468.378906 678.960938 473.214844 C 677.496094 478.046875 675.910156 482.84375 674.207031 487.597656 C 672.507812 492.351562 670.691406 497.0625 668.757812 501.730469 C 666.824219 506.398438 664.777344 511.011719 662.617188 515.578125 C 660.460938 520.144531 658.1875 524.65625 655.808594 529.109375 C 653.425781 533.5625 650.9375 537.957031 648.339844 542.289062 C 645.746094 546.621094 643.042969 550.886719 640.238281 555.085938 C 637.429688 559.289062 634.523438 563.414062 631.515625 567.472656 C 628.507812 571.53125 625.398438 575.511719 622.195312 579.414062 C 618.992188 583.320312 615.691406 587.140625 612.300781 590.886719 C 608.910156 594.628906 605.425781 598.285156 601.855469 601.855469 C 598.285156 605.425781 594.628906 608.910156 590.886719 612.300781 C 587.140625 615.691406 583.320312 618.992188 579.414062 622.195312 C 575.511719 625.398438 571.53125 628.507812 567.472656 631.515625 C 563.414062 634.523438 559.289062 637.429688 555.085938 640.238281 C 550.886719 643.042969 546.621094 645.746094 542.289062 648.339844 C 537.957031 650.9375 533.5625 653.425781 529.109375 655.808594 C 524.65625 658.1875 520.144531 660.460938 515.578125 662.617188 C 511.011719 664.777344 506.398438 666.824219 501.730469 668.757812 C 497.0625 670.691406 492.351562 672.507812 487.597656 674.207031 C 482.84375 675.910156 478.046875 677.496094 473.214844 678.960938 C 468.378906 680.425781 463.515625 681.773438 458.613281 683 C 453.714844 684.226562 448.789062 685.335938 443.835938 686.320312 C 438.882812 687.304688 433.90625 688.167969 428.910156 688.910156 C 423.914062 689.652344 418.902344 690.269531 413.875 690.765625 C 408.847656 691.257812 403.8125 691.628906 398.769531 691.878906 C 393.722656 692.125 388.675781 692.25 383.625 692.25 C 378.574219 692.25 373.527344 692.125 368.480469 691.878906 C 363.4375 691.628906 358.402344 691.257812 353.375 690.765625 C 348.347656 690.269531 343.335938 689.652344 338.339844 688.910156 C 333.34375 688.167969 328.367188 687.304688 323.414062 686.320312 C 318.460938 685.335938 313.535156 684.226562 308.636719 683 C 303.734375 681.773438 298.871094 680.425781 294.035156 678.960938 C 289.203125 677.496094 284.40625 675.910156 279.652344 674.207031 C 274.898438 672.507812 270.1875 670.691406 265.519531 668.757812 C 260.851562 666.824219 256.238281 664.777344 251.671875 662.617188 C 247.105469 660.460938 242.59375 658.1875 238.140625 655.808594 C 233.6875 653.425781 229.292969 650.9375 224.960938 648.339844 C 220.628906 645.746094 216.363281 643.042969 212.164062 640.238281 C 207.960938 637.429688 203.835938 634.523438 199.777344 631.515625 C 195.71875 628.507812 191.738281 625.398438 187.835938 622.195312 C 183.929688 618.992188 180.109375 615.691406 176.363281 612.300781 C 172.621094 608.910156 168.964844 605.425781 165.394531 601.855469 C 161.824219 598.285156 158.339844 594.628906 154.949219 590.886719 C 151.558594 587.140625 148.257812 583.320312 145.054688 579.414062 C 141.851562 575.511719 138.742188 571.53125 135.734375 567.472656 C 132.726562 563.414062 129.820312 559.289062 127.011719 555.085938 C 124.207031 550.886719 121.503906 546.621094 118.910156 542.289062 C 116.3125 537.957031 113.824219 533.5625 111.441406 529.109375 C 109.0625 524.65625 106.789062 520.144531 104.632812 515.578125 C 102.472656 511.011719 100.425781 506.398438 98.492188 501.730469 C 96.558594 497.0625 94.742188 492.351562 93.039062 487.597656 C 91.339844 482.84375 89.753906 478.046875 88.289062 473.214844 C 86.824219 468.378906 85.476562 463.515625 84.25 458.613281 C 83.023438 453.714844 81.914062 448.789062 80.929688 443.835938 C 79.945312 438.882812 79.082031 433.90625 78.339844 428.910156 C 77.597656 423.914062 76.980469 418.902344 76.484375 413.875 C 75.992188 408.847656 75.621094 403.8125 75.371094 398.769531 C 75.125 393.722656 75 388.675781 75 383.625 C 75 378.574219 75.125 373.527344 75.371094 368.480469 C 75.621094 363.4375 75.992188 358.402344 76.484375 353.375 C 76.980469 348.347656 77.597656 343.335938 78.339844 338.339844 C 79.082031 333.34375 79.945312 328.367188 80.929688 323.414062 C 81.914062 318.460938 83.023438 313.535156 84.25 308.636719 C 85.476562 303.734375 86.824219 298.871094 88.289062 294.035156 C 89.753906 289.203125 91.339844 284.40625 93.039062 279.652344 C 94.742188 274.898438 96.558594 270.1875 98.492188 265.519531 C 100.425781 260.851562 102.472656 256.238281 104.632812 251.671875 C 106.789062 247.105469 109.0625 242.59375 111.441406 238.140625 C 113.824219 233.6875 116.3125 229.292969 118.910156 224.960938 C 121.503906 220.628906 124.207031 216.363281 127.011719 212.164062 C 129.820312 207.960938 132.726562 203.835938 135.734375 199.777344 C 138.742188 195.71875 141.851562 191.738281 145.054688 187.835938 C 148.257812 183.929688 151.558594 180.109375 154.949219 176.363281 C 158.339844 172.621094 161.824219 168.964844 165.394531 165.394531 C 168.964844 161.824219 172.621094 158.339844 176.363281 154.949219 C 180.109375 151.558594 183.929688 148.257812 187.835938 145.054688 C 191.738281 141.851562 195.71875 138.742188 199.777344 135.734375 C 203.835938 132.726562 207.960938 129.820312 212.164062 127.011719 C 216.363281 124.207031 220.628906 121.503906 224.960938 118.910156 C 229.292969 116.3125 233.6875 113.824219 238.140625 111.441406 C 242.59375 109.0625 247.105469 106.789062 251.671875 104.632812 C 256.238281 102.472656 260.851562 100.425781 265.519531 98.492188 C 270.1875 96.558594 274.898438 94.742188 279.652344 93.039062 C 284.40625 91.339844 289.203125 89.753906 294.035156 88.289062 C 298.871094 86.824219 303.734375 85.476562 308.636719 84.25 C 313.535156 83.023438 318.460938 81.914062 323.414062 80.929688 C 328.367188 79.945312 333.34375 79.082031 338.339844 78.339844 C 343.335938 77.597656 348.347656 76.980469 353.375 76.484375 C 358.402344 75.992188 363.4375 75.621094 368.480469 75.371094 C 373.527344 75.125 378.574219 75 383.625 75 C 388.675781 75 393.722656 75.125 398.769531 75.371094 C 403.8125 75.621094 408.847656 75.992188 413.875 76.484375 C 418.902344 76.980469 423.914062 77.597656 428.910156 78.339844 C 433.90625 79.082031 438.882812 79.945312 443.835938 80.929688 C 448.789062 81.914062 453.714844 83.023438 458.613281 84.25 C 463.515625 85.476562 468.378906 86.824219 473.214844 88.289062 C 478.046875 89.753906 482.84375 91.339844 487.597656 93.039062 C 492.351562 94.742188 497.0625 96.558594 501.730469 98.492188 C 506.398438 100.425781 511.011719 102.472656 515.578125 104.632812 C 520.144531 106.789062 524.65625 109.0625 529.109375 111.441406 C 533.5625 113.824219 537.957031 116.3125 542.289062 118.910156 C 546.621094 121.503906 550.886719 124.207031 555.085938 127.011719 C 559.289062 129.820312 563.414062 132.726562 567.472656 135.734375 C 571.53125 138.742188 575.511719 141.851562 579.414062 145.054688 C 583.320312 148.257812 587.140625 151.558594 590.886719 154.949219 C 594.628906 158.339844 598.285156 161.824219 601.855469 165.394531 C 605.425781 168.964844 608.910156 172.621094 612.300781 176.363281 C 615.691406 180.109375 618.992188 183.929688 622.195312 187.835938 C 625.398438 191.738281 628.507812 195.71875 631.515625 199.777344 C 634.523438 203.835938 637.429688 207.960938 640.238281 212.164062 C 643.042969 216.363281 645.746094 220.628906 648.339844 224.960938 C 650.9375 229.292969 653.425781 233.6875 655.808594 238.140625 C 658.1875 242.59375 660.460938 247.105469 662.617188 251.671875 C 664.777344 256.238281 666.824219 260.851562 668.757812 265.519531 C 670.691406 270.1875 672.507812 274.898438 674.207031 279.652344 C 675.910156 284.40625 677.496094 289.203125 678.960938 294.035156 C 680.425781 298.871094 681.773438 303.734375 683 308.636719 C 684.226562 313.535156 685.335938 318.460938 686.320312 323.414062 C 687.304688 328.367188 688.167969 333.34375 688.910156 338.339844 C 689.652344 343.335938 690.269531 348.347656 690.765625 353.375 C 691.257812 358.402344 691.628906 363.4375 691.878906 368.480469 C 692.125 373.527344 692.25 378.574219 692.25 383.625 Z M 692.25 383.625 "/></clipPath><linearGradient x1="0.0499015" gradientTransform="matrix(2.010586,0,0,2.010586,75.000002,75.000019)" y1="307.049892" x2="307.050598" gradientUnits="userSpaceOnUse" y2="0.0506078" id="e77d1e9eaf"><stop style="stop-color:#fec053;stop-opacity:1;" offset="0"/><stop style="stop-color:#fec053;stop-opacity:1;" offset="0.125"/><stop style="stop-color:#fec053;stop-opacity:1;" offset="0.140625"/><stop style="stop-color:#fec053;stop-opacity:1;" offset="0.144531"/><stop style="stop-color:#febf53;stop-opacity:1;" offset="0.148438"/><stop style="stop-color:#febd52;stop-opacity:1;" offset="0.152344"/><stop style="stop-color:#febb52;stop-opacity:1;" offset="0.15625"/><stop style="stop-color:#fdb952;stop-opacity:1;" offset="0.160156"/><stop style="stop-color:#fdb852;stop-opacity:1;" offset="0.164062"/><stop style="stop-color:#fdb652;stop-opacity:1;" offset="0.167969"/><stop style="stop-color:#fdb451;stop-opacity:1;" offset="0.171875"/><stop style="stop-color:#fdb251;stop-opacity:1;" offset="0.175781"/><stop style="stop-color:#fdb051;stop-opacity:1;" offset="0.179688"/><stop style="stop-color:#fdae51;stop-opacity:1;" offset="0.183594"/><stop style="stop-color:#fcac50;stop-opacity:1;" offset="0.1875"/><stop style="stop-color:#fcaa50;stop-opacity:1;" offset="0.191406"/><stop style="stop-color:#fca950;stop-opacity:1;" offset="0.195312"/><stop style="stop-color:#fca750;stop-opacity:1;" offset="0.199219"/><stop style="stop-color:#fca54f;stop-opacity:1;" offset="0.203125"/><stop style="stop-color:#fca34f;stop-opacity:1;" offset="0.207031"/><stop style="stop-color:#fca14f;stop-opacity:1;" offset="0.210938"/><stop style="stop-color:#fc9f4f;stop-opacity:1;" offset="0.214844"/><stop style="stop-color:#fb9d4e;stop-opacity:1;" offset="0.21875"/><stop style="stop-color:#fb9b4e;stop-opacity:1;" offset="0.222656"/><stop style="stop-color:#fb9a4e;stop-opacity:1;" offset="0.226563"/><stop style="stop-color:#fb984e;stop-opacity:1;" offset="0.230469"/><stop style="stop-color:#fb964d;stop-opacity:1;" offset="0.234375"/><stop style="stop-color:#fb944d;stop-opacity:1;" offset="0.238281"/><stop style="stop-color:#fb924d;stop-opacity:1;" offset="0.242188"/><stop style="stop-color:#fa904d;stop-opacity:1;" offset="0.246094"/><stop style="stop-color:#fa8e4c;stop-opacity:1;" offset="0.25"/><stop style="stop-color:#fa8c4c;stop-opacity:1;" offset="0.253906"/><stop style="stop-color:#fa8b4c;stop-opacity:1;" offset="0.257812"/><stop style="stop-color:#fa894c;stop-opacity:1;" offset="0.261719"/><stop style="stop-color:#fa874b;stop-opacity:1;" offset="0.265625"/><stop style="stop-color:#fa854b;stop-opacity:1;" offset="0.269531"/><stop style="stop-color:#f9834b;stop-opacity:1;" offset="0.273438"/><stop style="stop-color:#f9814b;stop-opacity:1;" offset="0.277344"/><stop style="stop-color:#f97f4a;stop-opacity:1;" offset="0.28125"/><stop style="stop-color:#f97d4a;stop-opacity:1;" offset="0.285156"/><stop style="stop-color:#f97c4a;stop-opacity:1;" offset="0.289063"/><stop style="stop-color:#f97a4a;stop-opacity:1;" offset="0.292969"/><stop style="stop-color:#f97849;stop-opacity:1;" offset="0.296875"/><stop style="stop-color:#f87649;stop-opacity:1;" offset="0.300781"/><stop style="stop-color:#f87449;stop-opacity:1;" offset="0.304688"/><stop style="stop-color:#f87249;stop-opacity:1;" offset="0.308594"/><stop style="stop-color:#f87048;stop-opacity:1;" offset="0.3125"/><stop style="stop-color:#f86e48;stop-opacity:1;" offset="0.316406"/><stop style="stop-color:#f86d48;stop-opacity:1;" offset="0.320313"/><stop style="stop-color:#f86b48;stop-opacity:1;" offset="0.324219"/><stop style="stop-color:#f76947;stop-opacity:1;" offset="0.328125"/><stop style="stop-color:#f76747;stop-opacity:1;" offset="0.332031"/><stop style="stop-color:#f76547;stop-opacity:1;" offset="0.335938"/><stop style="stop-color:#f76347;stop-opacity:1;" offset="0.339844"/><stop style="stop-color:#f76147;stop-opacity:1;" offset="0.34375"/><stop style="stop-color:#f75f46;stop-opacity:1;" offset="0.347656"/><stop style="stop-color:#f75e46;stop-opacity:1;" offset="0.351562"/><stop style="stop-color:#f65c46;stop-opacity:1;" offset="0.355469"/><stop style="stop-color:#f65a46;stop-opacity:1;" offset="0.359375"/><stop style="stop-color:#f65845;stop-opacity:1;" offset="0.363281"/><stop style="stop-color:#f65645;stop-opacity:1;" offset="0.367188"/><stop style="stop-color:#f65445;stop-opacity:1;" offset="0.371094"/><stop style="stop-color:#f65245;stop-opacity:1;" offset="0.375"/><stop style="stop-color:#f65044;stop-opacity:1;" offset="0.378906"/><stop style="stop-color:#f54e44;stop-opacity:1;" offset="0.382813"/><stop style="stop-color:#f54d44;stop-opacity:1;" offset="0.386719"/><stop style="stop-color:#f54b44;stop-opacity:1;" offset="0.390625"/><stop style="stop-color:#f54943;stop-opacity:1;" offset="0.394531"/><stop style="stop-color:#f54743;stop-opacity:1;" offset="0.398438"/><stop style="stop-color:#f54543;stop-opacity:1;" offset="0.402344"/><stop style="stop-color:#f54343;stop-opacity:1;" offset="0.40625"/><stop style="stop-color:#f44142;stop-opacity:1;" offset="0.410156"/><stop style="stop-color:#f43f42;stop-opacity:1;" offset="0.414062"/><stop style="stop-color:#f43e42;stop-opacity:1;" offset="0.417969"/><stop style="stop-color:#f43c42;stop-opacity:1;" offset="0.421875"/><stop style="stop-color:#f43a41;stop-opacity:1;" offset="0.425781"/><stop style="stop-color:#f43841;stop-opacity:1;" offset="0.429688"/><stop style="stop-color:#f43641;stop-opacity:1;" offset="0.433594"/><stop style="stop-color:#f43441;stop-opacity:1;" offset="0.4375"/><stop style="stop-color:#f33240;stop-opacity:1;" offset="0.441406"/><stop style="stop-color:#f33040;stop-opacity:1;" offset="0.445313"/><stop style="stop-color:#f32f40;stop-opacity:1;" offset="0.449219"/><stop style="stop-color:#f32d40;stop-opacity:1;" offset="0.453125"/><stop style="stop-color:#f32b3f;stop-opacity:1;" offset="0.457031"/><stop style="stop-color:#f3293f;stop-opacity:1;" offset="0.460938"/><stop style="stop-color:#f3273f;stop-opacity:1;" offset="0.464844"/><stop style="stop-color:#f2253f;stop-opacity:1;" offset="0.46875"/><stop style="stop-color:#f2233e;stop-opacity:1;" offset="0.472656"/><stop style="stop-color:#f2213e;stop-opacity:1;" offset="0.476562"/><stop style="stop-color:#f1213f;stop-opacity:1;" offset="0.480469"/><stop style="stop-color:#f02041;stop-opacity:1;" offset="0.484375"/><stop style="stop-color:#ef2043;stop-opacity:1;" offset="0.488281"/><stop style="stop-color:#ee2046;stop-opacity:1;" offset="0.492188"/><stop style="stop-color:#ec2048;stop-opacity:1;" offset="0.496094"/><stop style="stop-color:#eb204a;stop-opacity:1;" offset="0.5"/><stop style="stop-color:#ea204d;stop-opacity:1;" offset="0.503906"/><stop style="stop-color:#e8204f;stop-opacity:1;" offset="0.507813"/><stop style="stop-color:#e72052;stop-opacity:1;" offset="0.511719"/><stop style="stop-color:#e62054;stop-opacity:1;" offset="0.515625"/><stop style="stop-color:#e42057;stop-opacity:1;" offset="0.519531"/><stop style="stop-color:#e32059;stop-opacity:1;" offset="0.523438"/><stop style="stop-color:#e2205b;stop-opacity:1;" offset="0.527344"/><stop style="stop-color:#e0205e;stop-opacity:1;" offset="0.53125"/><stop style="stop-color:#df2060;stop-opacity:1;" offset="0.535156"/><stop style="stop-color:#de2063;stop-opacity:1;" offset="0.539062"/><stop style="stop-color:#dc2065;stop-opacity:1;" offset="0.542969"/><stop style="stop-color:#db2068;stop-opacity:1;" offset="0.546875"/><stop style="stop-color:#d9206a;stop-opacity:1;" offset="0.550781"/><stop style="stop-color:#d8206d;stop-opacity:1;" offset="0.554688"/><stop style="stop-color:#d7206f;stop-opacity:1;" offset="0.558594"/><stop style="stop-color:#d52071;stop-opacity:1;" offset="0.5625"/><stop style="stop-color:#d41f74;stop-opacity:1;" offset="0.566406"/><stop style="stop-color:#d31f76;stop-opacity:1;" offset="0.570312"/><stop style="stop-color:#d11f79;stop-opacity:1;" offset="0.574219"/><stop style="stop-color:#d01f7b;stop-opacity:1;" offset="0.578125"/><stop style="stop-color:#cf1f7e;stop-opacity:1;" offset="0.582031"/><stop style="stop-color:#cd1f80;stop-opacity:1;" offset="0.585938"/><stop style="stop-color:#cc1f82;stop-opacity:1;" offset="0.589844"/><stop style="stop-color:#cb1f85;stop-opacity:1;" offset="0.59375"/><stop style="stop-color:#c91f87;stop-opacity:1;" offset="0.597656"/><stop style="stop-color:#c81f8a;stop-opacity:1;" offset="0.601562"/><stop style="stop-color:#c71f8c;stop-opacity:1;" offset="0.605469"/><stop style="stop-color:#c51f8f;stop-opacity:1;" offset="0.609375"/><stop style="stop-color:#c41f91;stop-opacity:1;" offset="0.613281"/><stop style="stop-color:#c31f93;stop-opacity:1;" offset="0.617188"/><stop style="stop-color:#c11f96;stop-opacity:1;" offset="0.621094"/><stop style="stop-color:#c01f98;stop-opacity:1;" offset="0.625"/><stop style="stop-color:#be1f9b;stop-opacity:1;" offset="0.628906"/><stop style="stop-color:#bd1f9d;stop-opacity:1;" offset="0.632812"/><stop style="stop-color:#bc1fa0;stop-opacity:1;" offset="0.636719"/><stop style="stop-color:#ba1fa2;stop-opacity:1;" offset="0.640625"/><stop style="stop-color:#b91fa4;stop-opacity:1;" offset="0.644531"/><stop style="stop-color:#b81fa7;stop-opacity:1;" offset="0.648438"/><stop style="stop-color:#b620a8;stop-opacity:1;" offset="0.652344"/><stop style="stop-color:#b421a9;stop-opacity:1;" offset="0.65625"/><stop style="stop-color:#b222aa;stop-opacity:1;" offset="0.660156"/><stop style="stop-color:#b023ab;stop-opacity:1;" offset="0.664062"/><stop style="stop-color:#ae23ac;stop-opacity:1;" offset="0.667969"/><stop style="stop-color:#ac24ad;stop-opacity:1;" offset="0.671875"/><stop style="stop-color:#aa25ae;stop-opacity:1;" offset="0.675781"/><stop style="stop-color:#a926af;stop-opacity:1;" offset="0.679688"/><stop style="stop-color:#a727b0;stop-opacity:1;" offset="0.683594"/><stop style="stop-color:#a528b0;stop-opacity:1;" offset="0.6875"/><stop style="stop-color:#a329b1;stop-opacity:1;" offset="0.691406"/><stop style="stop-color:#a12ab2;stop-opacity:1;" offset="0.695312"/><stop style="stop-color:#9f2bb3;stop-opacity:1;" offset="0.699219"/><stop style="stop-color:#9d2cb4;stop-opacity:1;" offset="0.703125"/><stop style="stop-color:#9b2db5;stop-opacity:1;" offset="0.707031"/><stop style="stop-color:#992eb6;stop-opacity:1;" offset="0.710938"/><stop style="stop-color:#972fb7;stop-opacity:1;" offset="0.714844"/><stop style="stop-color:#9530b8;stop-opacity:1;" offset="0.71875"/><stop style="stop-color:#9331b8;stop-opacity:1;" offset="0.722656"/><stop style="stop-color:#9132b9;stop-opacity:1;" offset="0.726563"/><stop style="stop-color:#8f33ba;stop-opacity:1;" offset="0.730469"/><stop style="stop-color:#8e34bb;stop-opacity:1;" offset="0.734375"/><stop style="stop-color:#8c35bc;stop-opacity:1;" offset="0.738281"/><stop style="stop-color:#8a36bd;stop-opacity:1;" offset="0.742188"/><stop style="stop-color:#8837be;stop-opacity:1;" offset="0.746094"/><stop style="stop-color:#8638bf;stop-opacity:1;" offset="0.75"/><stop style="stop-color:#8439bf;stop-opacity:1;" offset="0.753906"/><stop style="stop-color:#823ac0;stop-opacity:1;" offset="0.757812"/><stop style="stop-color:#803bc1;stop-opacity:1;" offset="0.761719"/><stop style="stop-color:#7e3cc2;stop-opacity:1;" offset="0.765625"/><stop style="stop-color:#7c3cc3;stop-opacity:1;" offset="0.769531"/><stop style="stop-color:#7a3dc4;stop-opacity:1;" offset="0.773438"/><stop style="stop-color:#783ec5;stop-opacity:1;" offset="0.777344"/><stop style="stop-color:#763fc6;stop-opacity:1;" offset="0.78125"/><stop style="stop-color:#7440c7;stop-opacity:1;" offset="0.785156"/><stop style="stop-color:#7341c7;stop-opacity:1;" offset="0.789062"/><stop style="stop-color:#7142c8;stop-opacity:1;" offset="0.792969"/><stop style="stop-color:#6f43c9;stop-opacity:1;" offset="0.796875"/><stop style="stop-color:#6d44ca;stop-opacity:1;" offset="0.800781"/><stop style="stop-color:#6b45cb;stop-opacity:1;" offset="0.804688"/><stop style="stop-color:#6946cc;stop-opacity:1;" offset="0.808594"/><stop style="stop-color:#6747cd;stop-opacity:1;" offset="0.8125"/><stop style="stop-color:#6548ce;stop-opacity:1;" offset="0.816406"/><stop style="stop-color:#6349cf;stop-opacity:1;" offset="0.820313"/><stop style="stop-color:#614acf;stop-opacity:1;" offset="0.824219"/><stop style="stop-color:#5f4bd0;stop-opacity:1;" offset="0.828125"/><stop style="stop-color:#5d4cd1;stop-opacity:1;" offset="0.832031"/><stop style="stop-color:#5b4dd2;stop-opacity:1;" offset="0.835938"/><stop style="stop-color:#594ed3;stop-opacity:1;" offset="0.839844"/><stop style="stop-color:#574fd4;stop-opacity:1;" offset="0.84375"/><stop style="stop-color:#5650d5;stop-opacity:1;" offset="0.847656"/><stop style="stop-color:#5451d6;stop-opacity:1;" offset="0.851562"/><stop style="stop-color:#5351d6;stop-opacity:1;" offset="0.859375"/><stop style="stop-color:#5351d6;stop-opacity:1;" offset="0.875"/><stop style="stop-color:#5351d6;stop-opacity:1;" offset="1"/></linearGradient></defs><g id="d26b22b909"><g clip-rule="nonzero" clip-path="url(#2f58973af7)"><g clip-rule="nonzero" clip-path="url(#6f61a278bf)"><path style=" stroke:none;fill-rule:nonzero;fill:url(#e77d1e9eaf);" d="M 75 75 L 75 692.25 L 692.25 692.25 L 692.25 75 Z M 75 75 "/></g></g><path style=" stroke:none;fill-rule:nonzero;fill:#ffffff;fill-opacity:1;" d="M 466.429688 569.882812 L 301.898438 569.882812 C 244.855469 569.882812 198.445312 523.476562 198.445312 466.429688 L 198.445312 301.898438 C 198.445312 244.851562 244.855469 198.445312 301.898438 198.445312 L 466.429688 198.445312 C 523.476562 198.445312 569.882812 244.851562 569.882812 301.898438 L 569.882812 466.429688 C 569.882812 523.476562 523.476562 569.882812 466.429688 569.882812 Z M 301.898438 223.59375 C 258.722656 223.59375 223.59375 258.722656 223.59375 301.898438 L 223.59375 466.429688 C 223.59375 509.605469 258.722656 544.734375 301.898438 544.734375 L 466.429688 544.734375 C 509.605469 544.734375 544.734375 509.605469 544.734375 466.429688 L 544.734375 301.898438 C 544.734375 258.722656 509.605469 223.59375 466.429688 223.59375 Z M 301.898438 223.59375 "/><path style=" stroke:none;fill-rule:nonzero;fill:#ffffff;fill-opacity:1;" d="M 384.167969 476.167969 C 333.445312 476.167969 292.175781 434.898438 292.175781 384.167969 C 292.175781 333.445312 333.445312 292.175781 384.167969 292.175781 C 434.898438 292.175781 476.167969 333.445312 476.167969 384.167969 C 476.167969 434.898438 434.898438 476.167969 384.167969 476.167969 Z M 384.167969 317.3125 C 347.308594 317.3125 317.320312 347.300781 317.320312 384.164062 C 317.320312 421.027344 347.3125 451.015625 384.167969 451.015625 C 421.027344 451.015625 451.019531 421.027344 451.019531 384.164062 C 451.019531 347.300781 421.035156 317.3125 384.167969 317.3125 Z M 384.167969 317.3125 "/></g></svg>