<svg xmlns="http://www.w3.org/2000/svg" xmlns:xlink="http://www.w3.org/1999/xlink" width="1000" zoomAndPan="magnify" viewBox="0 0 750 749.999995" height="1000" preserveAspectRatio="xMidYMid meet" version="1.2"><defs><clipPath id="6e9453d90f"><path d="M 62.085938 61.300781 L 687.585938 61.300781 L 687.585938 689 L 62.085938 689 Z M 62.085938 61.300781 "/></clipPath></defs><g id="8abcde5552"><g clip-rule="nonzero" clip-path="url(#6e9453d90f)"><path style=" stroke:none;fill-rule:nonzero;fill:#000000;fill-opacity:1;" d="M 687.582031 375.082031 C 687.582031 380.210938 687.457031 385.332031 687.203125 390.453125 C 686.953125 395.574219 686.578125 400.683594 686.078125 405.785156 C 685.574219 410.890625 684.949219 415.972656 684.195312 421.042969 C 683.445312 426.113281 682.570312 431.164062 681.570312 436.195312 C 680.574219 441.222656 679.453125 446.222656 678.207031 451.195312 C 676.964844 456.167969 675.601562 461.105469 674.113281 466.011719 C 672.628906 470.917969 671.023438 475.785156 669.296875 480.609375 C 667.574219 485.4375 665.734375 490.21875 663.773438 494.957031 C 661.816406 499.691406 659.742188 504.375 657.554688 509.011719 C 655.367188 513.644531 653.066406 518.222656 650.652344 522.746094 C 648.242188 527.265625 645.71875 531.722656 643.085938 536.121094 C 640.453125 540.519531 637.71875 544.851562 634.875 549.113281 C 632.03125 553.375 629.085938 557.566406 626.035156 561.683594 C 622.988281 565.800781 619.839844 569.839844 616.59375 573.804688 C 613.34375 577.765625 610.003906 581.648438 606.566406 585.445312 C 603.128906 589.242188 599.601562 592.957031 595.980469 596.582031 C 592.363281 600.207031 588.65625 603.738281 584.863281 607.183594 C 581.070312 610.628906 577.195312 613.972656 573.242188 617.226562 C 569.285156 620.476562 565.25 623.628906 561.136719 626.683594 C 557.027344 629.734375 552.84375 632.6875 548.589844 635.535156 C 544.332031 638.382812 540.007812 641.125 535.621094 643.761719 C 531.230469 646.394531 526.777344 648.921875 522.261719 651.339844 C 517.75 653.757812 513.179688 656.058594 508.550781 658.253906 C 503.925781 660.441406 499.246094 662.519531 494.519531 664.484375 C 489.789062 666.445312 485.015625 668.292969 480.195312 670.019531 C 475.378906 671.746094 470.519531 673.355469 465.621094 674.839844 C 460.722656 676.328125 455.792969 677.695312 450.828125 678.941406 C 445.863281 680.183594 440.871094 681.304688 435.851562 682.308594 C 430.828125 683.308594 425.789062 684.183594 420.726562 684.9375 C 415.664062 685.691406 410.585938 686.316406 405.492188 686.820312 C 400.398438 687.324219 395.296875 687.699219 390.183594 687.953125 C 385.070312 688.203125 379.957031 688.328125 374.835938 688.328125 C 369.71875 688.328125 364.605469 688.203125 359.492188 687.953125 C 354.378906 687.703125 349.277344 687.324219 344.183594 686.820312 C 339.089844 686.320312 334.011719 685.691406 328.949219 684.941406 C 323.882812 684.1875 318.84375 683.308594 313.824219 682.308594 C 308.800781 681.308594 303.8125 680.1875 298.847656 678.941406 C 293.882812 677.695312 288.949219 676.328125 284.054688 674.839844 C 279.15625 673.355469 274.296875 671.746094 269.476562 670.019531 C 264.65625 668.292969 259.882812 666.445312 255.15625 664.484375 C 250.425781 662.519531 245.746094 660.441406 241.121094 658.253906 C 236.496094 656.058594 231.925781 653.757812 227.410156 651.339844 C 222.894531 648.921875 218.445312 646.398438 214.054688 643.761719 C 209.664062 641.125 205.339844 638.382812 201.085938 635.535156 C 196.828125 632.6875 192.644531 629.734375 188.535156 626.683594 C 184.421875 623.628906 180.390625 620.476562 176.433594 617.226562 C 172.476562 613.972656 168.601562 610.628906 164.808594 607.183594 C 161.015625 603.738281 157.3125 600.207031 153.691406 596.582031 C 150.074219 592.957031 146.542969 589.242188 143.105469 585.445312 C 139.671875 581.648438 136.328125 577.765625 133.082031 573.804688 C 129.835938 569.839844 126.6875 565.800781 123.636719 561.683594 C 120.585938 557.566406 117.640625 553.375 114.800781 549.113281 C 111.957031 544.851562 109.21875 540.519531 106.585938 536.125 C 103.957031 531.722656 101.433594 527.265625 99.019531 522.746094 C 96.609375 518.222656 94.308594 513.644531 92.121094 509.011719 C 89.929688 504.375 87.855469 499.691406 85.898438 494.957031 C 83.9375 490.21875 82.097656 485.4375 80.375 480.609375 C 78.648438 475.785156 77.042969 470.917969 75.558594 466.011719 C 74.074219 461.105469 72.707031 456.167969 71.464844 451.195312 C 70.222656 446.222656 69.101562 441.222656 68.101562 436.195312 C 67.105469 431.167969 66.230469 426.117188 65.476562 421.046875 C 64.726562 415.976562 64.101562 410.890625 63.597656 405.785156 C 63.097656 400.683594 62.71875 395.574219 62.46875 390.453125 C 62.21875 385.332031 62.09375 380.210938 62.09375 375.082031 C 62.09375 369.957031 62.21875 364.835938 62.46875 359.710938 C 62.71875 354.59375 63.097656 349.484375 63.597656 344.378906 C 64.101562 339.277344 64.726562 334.191406 65.476562 329.117188 C 66.230469 324.046875 67.105469 319 68.101562 313.972656 C 69.101562 308.941406 70.222656 303.941406 71.464844 298.96875 C 72.707031 293.996094 74.074219 289.058594 75.558594 284.152344 C 77.042969 279.246094 78.648438 274.378906 80.375 269.550781 C 82.097656 264.726562 83.9375 259.945312 85.898438 255.207031 C 87.855469 250.46875 89.929688 245.785156 92.121094 241.152344 C 94.308594 236.519531 96.609375 231.941406 99.019531 227.421875 C 101.433594 222.898438 103.957031 218.4375 106.585938 214.042969 C 109.21875 209.644531 111.957031 205.316406 114.800781 201.054688 C 117.640625 196.789062 120.585938 192.601562 123.636719 188.480469 C 126.6875 184.363281 129.835938 180.324219 133.082031 176.359375 C 136.328125 172.398438 139.671875 168.515625 143.105469 164.71875 C 146.542969 160.921875 150.074219 157.210938 153.691406 153.585938 C 157.3125 149.957031 161.015625 146.425781 164.808594 142.984375 C 168.601562 139.539062 172.476562 136.191406 176.433594 132.941406 C 180.390625 129.691406 184.421875 126.535156 188.535156 123.480469 C 192.644531 120.425781 196.828125 117.476562 201.085938 114.628906 C 205.339844 111.78125 209.664062 109.039062 214.054688 106.402344 C 218.441406 103.765625 222.894531 101.238281 227.410156 98.824219 C 231.925781 96.40625 236.496094 94.101562 241.121094 91.910156 C 245.746094 89.71875 250.425781 87.644531 255.152344 85.683594 C 259.882812 83.71875 264.65625 81.875 269.476562 80.148438 C 274.296875 78.421875 279.152344 76.8125 284.050781 75.324219 C 288.949219 73.839844 293.878906 72.472656 298.84375 71.226562 C 303.8125 69.980469 308.800781 68.859375 313.824219 67.859375 C 318.84375 66.855469 323.882812 65.980469 328.949219 65.230469 C 334.011719 64.476562 339.089844 63.851562 344.183594 63.347656 C 349.277344 62.847656 354.378906 62.46875 359.492188 62.21875 C 364.605469 61.964844 369.71875 61.839844 374.835938 61.835938 C 379.957031 61.839844 385.070312 61.964844 390.183594 62.21875 C 395.296875 62.46875 400.398438 62.847656 405.492188 63.347656 C 410.585938 63.851562 415.664062 64.476562 420.726562 65.230469 C 425.789062 65.980469 430.828125 66.855469 435.851562 67.855469 C 440.871094 68.855469 445.863281 69.976562 450.828125 71.226562 C 455.792969 72.472656 460.722656 73.839844 465.621094 75.324219 C 470.519531 76.8125 475.378906 78.421875 480.195312 80.148438 C 485.015625 81.875 489.789062 83.71875 494.519531 85.683594 C 499.246094 87.644531 503.925781 89.71875 508.550781 91.910156 C 513.179688 94.101562 517.75 96.40625 522.261719 98.824219 C 526.777344 101.238281 531.230469 103.765625 535.621094 106.402344 C 540.007812 109.039062 544.332031 111.78125 548.585938 114.628906 C 552.84375 117.476562 557.027344 120.425781 561.136719 123.480469 C 565.25 126.535156 569.28125 129.6875 573.238281 132.941406 C 577.195312 136.191406 581.070312 139.539062 584.863281 142.984375 C 588.65625 146.421875 592.359375 149.957031 595.980469 153.582031 C 599.597656 157.210938 603.125 160.921875 606.5625 164.71875 C 610 168.515625 613.34375 172.398438 616.589844 176.359375 C 619.835938 180.324219 622.984375 184.363281 626.035156 188.480469 C 629.082031 192.601562 632.03125 196.789062 634.875 201.050781 C 637.71875 205.3125 640.453125 209.644531 643.085938 214.039062 C 645.71875 218.4375 648.238281 222.898438 650.652344 227.417969 C 653.0625 231.9375 655.363281 236.515625 657.554688 241.152344 C 659.742188 245.785156 661.816406 250.46875 663.773438 255.207031 C 665.730469 259.945312 667.574219 264.726562 669.296875 269.550781 C 671.023438 274.378906 672.628906 279.246094 674.113281 284.152344 C 675.601562 289.058594 676.964844 293.996094 678.207031 298.96875 C 679.453125 303.941406 680.574219 308.941406 681.570312 313.96875 C 682.570312 319 683.445312 324.046875 684.195312 329.117188 C 684.949219 334.1875 685.574219 339.277344 686.078125 344.378906 C 686.578125 349.480469 686.953125 354.589844 687.203125 359.710938 C 687.457031 364.835938 687.582031 369.957031 687.582031 375.082031 Z M 687.582031 375.082031 "/></g><path style="fill-rule:evenodd;fill:#ffffff;fill-opacity:1;stroke-width:2.14;stroke-linecap:round;stroke-linejoin:round;stroke:#ffffff;stroke-opacity:1;stroke-miterlimit:1.5;" d="M 30640.399311 9422.349459 L 30685.698671 9422.029343 L 30795.699433 9582.121055 L 30750.000009 9581.71934 Z M 30640.399311 9422.349459 " transform="matrix(1.864937,0,0,1.866996,-56912.495624,-17368.924654)"/><path style="fill-rule:evenodd;fill:#ffffff;fill-opacity:1;stroke-width:2.14;stroke-linecap:round;stroke-linejoin:round;stroke:#ffffff;stroke-opacity:1;stroke-miterlimit:1.5;" d="M 30776.800089 9422.029343 L 30790.900763 9422.029343 L 30653.999382 9582.121055 L 30640.399311 9582.121055 Z M 30776.800089 9422.029343 " transform="matrix(1.864937,0,0,1.866996,-56912.495624,-17368.924654)"/><path style=" stroke:none;fill-rule:evenodd;fill:#000000;fill-opacity:1;" d="M 264.808594 245.179688 L 303.96875 245.402344 L 485.054688 504.992188 L 445.890625 504.933594 Z M 264.808594 245.179688 "/><path style=" stroke:none;fill-rule:evenodd;fill:#000000;fill-opacity:1;" d="M 264.808594 245.179688 L 303.96875 245.402344 L 485.054688 504.992188 L 445.890625 504.933594 Z M 267.789062 246.765625 C 267.789062 246.765625 446.636719 503.367188 446.636719 503.367188 C 446.636719 503.367188 482.070312 503.421875 482.070312 503.421875 L 303.039062 246.972656 Z M 267.789062 246.765625 "/></g></svg>