<svg xmlns="http://www.w3.org/2000/svg" xmlns:xlink="http://www.w3.org/1999/xlink" width="1000" zoomAndPan="magnify" viewBox="0 0 750 749.999995" height="1000" preserveAspectRatio="xMidYMid meet" version="1.2"><defs><clipPath id="2b44e4d8d9"><path d="M 75 75 L 675 75 L 675 675 L 75 675 Z M 75 75 "/></clipPath></defs><g id="7f537d51c6"><g clip-rule="nonzero" clip-path="url(#2b44e4d8d9)"><path style=" stroke:none;fill-rule:nonzero;fill:#ff0000;fill-opacity:1;" d="M 675.914062 375.269531 C 675.914062 380.191406 675.792969 385.109375 675.554688 390.019531 C 675.3125 394.933594 674.949219 399.839844 674.46875 404.738281 C 673.984375 409.632812 673.382812 414.511719 672.660156 419.378906 C 671.9375 424.246094 671.097656 429.089844 670.136719 433.917969 C 669.179688 438.742188 668.101562 443.542969 666.90625 448.3125 C 665.710938 453.085938 664.398438 457.824219 662.96875 462.535156 C 661.542969 467.242188 660 471.910156 658.34375 476.542969 C 656.683594 481.175781 654.914062 485.761719 653.03125 490.308594 C 651.148438 494.855469 649.15625 499.351562 647.054688 503.796875 C 644.949219 508.246094 642.738281 512.636719 640.417969 516.976562 C 638.101562 521.316406 635.675781 525.59375 633.144531 529.816406 C 630.617188 534.035156 627.984375 538.191406 625.253906 542.28125 C 622.519531 546.371094 619.6875 550.390625 616.757812 554.34375 C 613.828125 558.296875 610.800781 562.171875 607.679688 565.976562 C 604.558594 569.777344 601.34375 573.503906 598.042969 577.148438 C 594.738281 580.792969 591.347656 584.355469 587.867188 587.835938 C 584.390625 591.3125 580.828125 594.703125 577.183594 598.007812 C 573.535156 601.3125 569.8125 604.523438 566.011719 607.644531 C 562.207031 610.765625 558.328125 613.792969 554.378906 616.722656 C 550.425781 619.652344 546.40625 622.484375 542.316406 625.21875 C 538.222656 627.953125 534.070312 630.582031 529.847656 633.113281 C 525.628906 635.640625 521.351562 638.066406 517.011719 640.386719 C 512.671875 642.703125 508.277344 644.914062 503.832031 647.019531 C 499.382812 649.121094 494.886719 651.117188 490.34375 653 C 485.796875 654.878906 481.210938 656.652344 476.578125 658.308594 C 471.945312 659.964844 467.273438 661.507812 462.566406 662.9375 C 457.859375 664.363281 453.121094 665.675781 448.347656 666.871094 C 443.574219 668.066406 438.777344 669.144531 433.949219 670.105469 C 429.125 671.066406 424.28125 671.90625 419.414062 672.628906 C 414.546875 673.351562 409.664062 673.953125 404.769531 674.433594 C 399.875 674.917969 394.96875 675.277344 390.054688 675.519531 C 385.140625 675.761719 380.226562 675.882812 375.304688 675.882812 C 370.386719 675.882812 365.46875 675.761719 360.554688 675.519531 C 355.640625 675.277344 350.734375 674.917969 345.839844 674.433594 C 340.945312 673.953125 336.0625 673.347656 331.195312 672.628906 C 326.328125 671.90625 321.484375 671.066406 316.660156 670.105469 C 311.832031 669.144531 307.035156 668.066406 302.261719 666.871094 C 297.488281 665.675781 292.75 664.363281 288.042969 662.9375 C 283.335938 661.507812 278.664062 659.964844 274.03125 658.308594 C 269.398438 656.652344 264.8125 654.878906 260.265625 653 C 255.722656 651.117188 251.226562 649.121094 246.777344 647.019531 C 242.328125 644.917969 237.9375 642.703125 233.597656 640.386719 C 229.257812 638.066406 224.980469 635.640625 220.761719 633.113281 C 216.539062 630.582031 212.386719 627.953125 208.292969 625.21875 C 204.203125 622.484375 200.183594 619.652344 196.230469 616.722656 C 192.28125 613.792969 188.402344 610.765625 184.601562 607.644531 C 180.796875 604.523438 177.074219 601.3125 173.425781 598.007812 C 169.78125 594.703125 166.21875 591.3125 162.742188 587.835938 C 159.261719 584.355469 155.871094 580.792969 152.566406 577.148438 C 149.261719 573.503906 146.050781 569.78125 142.929688 565.976562 C 139.808594 562.171875 136.785156 558.296875 133.851562 554.34375 C 130.921875 550.394531 128.089844 546.371094 125.355469 542.28125 C 122.621094 538.191406 119.992188 534.035156 117.460938 529.816406 C 114.933594 525.59375 112.507812 521.316406 110.191406 516.976562 C 107.871094 512.636719 105.660156 508.246094 103.554688 503.796875 C 101.453125 499.351562 99.460938 494.855469 97.578125 490.308594 C 95.695312 485.761719 93.925781 481.175781 92.265625 476.542969 C 90.609375 471.910156 89.066406 467.242188 87.640625 462.535156 C 86.210938 457.824219 84.898438 453.085938 83.703125 448.3125 C 82.507812 443.542969 81.429688 438.742188 80.46875 433.917969 C 79.511719 429.089844 78.671875 424.246094 77.949219 419.378906 C 77.226562 414.511719 76.625 409.632812 76.140625 404.738281 C 75.660156 399.839844 75.296875 394.933594 75.058594 390.019531 C 74.816406 385.109375 74.695312 380.191406 74.695312 375.269531 C 74.695312 370.351562 74.816406 365.433594 75.058594 360.519531 C 75.296875 355.609375 75.660156 350.703125 76.140625 345.804688 C 76.625 340.910156 77.226562 336.027344 77.949219 331.164062 C 78.671875 326.296875 79.511719 321.449219 80.46875 316.625 C 81.429688 311.800781 82.507812 307 83.703125 302.230469 C 84.898438 297.457031 86.210938 292.714844 87.640625 288.007812 C 89.066406 283.300781 90.609375 278.628906 92.265625 274 C 93.925781 269.367188 95.695312 264.777344 97.578125 260.230469 C 99.460938 255.6875 101.453125 251.191406 103.554688 246.742188 C 105.660156 242.296875 107.871094 237.902344 110.191406 233.566406 C 112.507812 229.226562 114.933594 224.945312 117.460938 220.726562 C 119.992188 216.507812 122.621094 212.351562 125.355469 208.261719 C 128.089844 204.167969 130.921875 200.148438 133.851562 196.199219 C 136.785156 192.246094 139.808594 188.371094 142.929688 184.566406 C 146.050781 180.761719 149.261719 177.039062 152.566406 173.394531 C 155.871094 169.75 159.261719 166.1875 162.742188 162.707031 C 166.21875 159.226562 169.78125 155.835938 173.425781 152.535156 C 177.074219 149.230469 180.796875 146.015625 184.601562 142.894531 C 188.402344 139.773438 192.28125 136.75 196.230469 133.816406 C 200.183594 130.886719 204.203125 128.054688 208.292969 125.324219 C 212.386719 122.589844 216.539062 119.957031 220.761719 117.429688 C 224.980469 114.898438 229.257812 112.476562 233.597656 110.15625 C 237.9375 107.835938 242.328125 105.625 246.777344 103.523438 C 251.222656 101.417969 255.71875 99.425781 260.265625 97.542969 C 264.8125 95.660156 269.398438 93.890625 274.03125 92.234375 C 278.664062 90.574219 283.335938 89.03125 288.042969 87.605469 C 292.75 86.175781 297.488281 84.863281 302.261719 83.667969 C 307.035156 82.472656 311.832031 81.398438 316.660156 80.4375 C 321.484375 79.476562 326.328125 78.636719 331.195312 77.914062 C 336.0625 77.195312 340.945312 76.589844 345.839844 76.109375 C 350.734375 75.625 355.640625 75.265625 360.554688 75.023438 C 365.46875 74.78125 370.386719 74.660156 375.304688 74.660156 C 380.226562 74.660156 385.140625 74.78125 390.054688 75.023438 C 394.96875 75.265625 399.875 75.625 404.769531 76.109375 C 409.664062 76.589844 414.546875 77.195312 419.414062 77.914062 C 424.28125 78.636719 429.125 79.476562 433.949219 80.4375 C 438.777344 81.394531 443.574219 82.472656 448.347656 83.667969 C 453.121094 84.863281 457.859375 86.175781 462.566406 87.605469 C 467.273438 89.03125 471.945312 90.574219 476.578125 92.234375 C 481.210938 93.890625 485.796875 95.660156 490.34375 97.542969 C 494.886719 99.425781 499.382812 101.417969 503.832031 103.523438 C 508.277344 105.625 512.671875 107.835938 517.011719 110.15625 C 521.351562 112.476562 525.628906 114.898438 529.847656 117.429688 C 534.070312 119.957031 538.222656 122.589844 542.3125 125.324219 C 546.40625 128.054688 550.425781 130.886719 554.378906 133.816406 C 558.328125 136.75 562.207031 139.773438 566.011719 142.894531 C 569.8125 146.015625 573.535156 149.230469 577.183594 152.535156 C 580.828125 155.835938 584.390625 159.226562 587.867188 162.707031 C 591.347656 166.1875 594.738281 169.75 598.042969 173.394531 C 601.347656 177.039062 604.558594 180.761719 607.679688 184.566406 C 610.800781 188.371094 613.828125 192.246094 616.757812 196.199219 C 619.6875 200.148438 622.519531 204.167969 625.253906 208.261719 C 627.984375 212.351562 630.617188 216.507812 633.144531 220.726562 C 635.675781 224.945312 638.101562 229.226562 640.417969 233.566406 C 642.738281 237.902344 644.949219 242.296875 647.054688 246.742188 C 649.15625 251.191406 651.148438 255.6875 653.03125 260.230469 C 654.914062 264.777344 656.683594 269.367188 658.34375 274 C 660 278.628906 661.542969 283.300781 662.96875 288.007812 C 664.398438 292.71875 665.710938 297.457031 666.90625 302.230469 C 668.101562 307 669.179688 311.800781 670.136719 316.625 C 671.097656 321.449219 671.9375 326.296875 672.660156 331.164062 C 673.382812 336.027344 673.984375 340.910156 674.46875 345.804688 C 674.949219 350.703125 675.3125 355.609375 675.554688 360.519531 C 675.792969 365.433594 675.914062 370.351562 675.914062 375.269531 Z M 675.914062 375.269531 "/></g><path style=" stroke:none;fill-rule:nonzero;fill:#ffffff;fill-opacity:1;" d="M 279.71875 535.804688 L 559.835938 375.273438 L 279.71875 214.746094 Z M 279.71875 535.804688 "/></g></svg>